<svg xmlns="http://www.w3.org/2000/svg" viewBox="0 0 678.55 499.96"><defs><style>.cls-1,.cls-3,.cls-4,.cls-5,.cls-6{fill:none;}.cls-1,.cls-4{stroke:#036785;}.cls-1,.cls-3,.cls-4,.cls-5,.cls-6,.cls-8{stroke-miterlimit:10;}.cls-13,.cls-2{fill:#00bde0;}.cls-2{opacity:0.25;}.cls-3,.cls-6{stroke:#00bde0;}.cls-4{stroke-width:2px;}.cls-5{stroke:#ecbe31;stroke-width:3px;}.cls-6{stroke-width:4px;}.cls-7{fill:#ecbe31;}.cls-10,.cls-8,.cls-9{fill:#036785;}.cls-8{stroke:#00dbe0;}.cls-10,.cls-13,.cls-25{font-size:18px;font-weight:700;}.cls-10,.cls-13{font-family:Muli-SemiBold, Muli;}.cls-11{letter-spacing:-0.01em;}.cls-12{letter-spacing:0em;}.cls-14{letter-spacing:0em;}.cls-15{letter-spacing:0em;}.cls-16{letter-spacing:-0.01em;}.cls-17{letter-spacing:0em;}.cls-18{letter-spacing:-0.01em;}.cls-19{letter-spacing:-0.01em;}.cls-20{letter-spacing:0.03em;}.cls-21{letter-spacing:-0.02em;}.cls-22{letter-spacing:-0.01em;}.cls-23{letter-spacing:-0.01em;}.cls-24{letter-spacing:0em;}.cls-25{fill:#fff;font-family:Muli-ExtraBold, Muli;}.cls-26{letter-spacing:-0.01em;}.cls-27{letter-spacing:0em;}.cls-28{letter-spacing:-0.01em;}</style></defs><title>Recurso 10</title><g id="Capa_2" data-name="Capa 2"><g id="Capa_1-2" data-name="Capa 1"><polyline class="cls-1" points="442.68 77.09 348.68 54.09 508.68 143.09"/><line class="cls-1" x1="141.68" y1="234.09" x2="442.68" y2="77.09"/><line class="cls-1" x1="177.68" y1="139.09" x2="442.68" y2="77.09"/><line class="cls-1" x1="251.68" y1="74.09" x2="442.68" y2="77.09"/><line class="cls-1" x1="508.68" y1="143.09" x2="251.68" y2="74.09"/><line class="cls-1" x1="177.68" y1="139.09" x2="508.68" y2="143.09"/><line class="cls-1" x1="141.68" y1="234.09" x2="508.68" y2="143.09"/><line class="cls-1" x1="141.68" y1="234.09" x2="348.68" y2="54.09"/><line class="cls-1" x1="177.68" y1="139.09" x2="348.68" y2="54.09"/><line class="cls-1" x1="251.68" y1="74.09" x2="348.68" y2="54.09"/><line class="cls-1" x1="442.68" y1="77.09" x2="508.68" y2="143.09"/><line class="cls-1" x1="508.68" y1="143.09" x2="546.68" y2="234.09"/><line class="cls-1" x1="442.68" y1="77.09" x2="546.68" y2="234.09"/><line class="cls-1" x1="546.68" y1="234.09" x2="534.68" y2="329.09"/><line class="cls-1" x1="480.68" y1="409.09" x2="546.68" y2="234.09"/><line class="cls-1" x1="390.68" y1="457.09" x2="546.68" y2="234.09"/><line class="cls-1" x1="534.68" y1="329.09" x2="390.68" y2="457.09"/><line class="cls-1" x1="390.68" y1="457.09" x2="294.68" y2="457.09"/><line class="cls-1" x1="208.68" y1="413.09" x2="390.68" y2="457.09"/><line class="cls-1" x1="150.68" y1="329.09" x2="390.68" y2="457.09"/><polygon class="cls-2" points="141.18 236.59 348.18 54.59 252.18 74.59 177.18 138.59 141.18 236.59"/><polygon class="cls-2" points="441.18 78.59 252.18 74.59 177.18 138.59 141.18 234.59 510.18 142.59 441.18 78.59"/><polygon class="cls-3" points="141.18 236.59 348.18 54.59 252.18 74.59 177.18 138.59 141.18 236.59"/><polygon class="cls-3" points="441.18 78.59 252.18 74.59 177.18 138.59 141.18 234.59 510.18 142.59 441.18 78.59"/><circle class="cls-4" cx="342.98" cy="258.56" r="204.03" transform="translate(10.1 530) rotate(-76.21)"/><path class="cls-5" d="M141.54,236.42a205.94,205.94,0,0,1,4.59-26.34A203.61,203.61,0,0,1,255.28,74.5"/><path class="cls-6" d="M439.85,80.25a205.94,205.94,0,0,1,22.66,14.2,203.75,203.75,0,0,1,47.42,47.79"/><circle class="cls-7" cx="251.79" cy="74.02" r="10" transform="translate(119.87 300.91) rotate(-76.21)"/><circle class="cls-8" cx="509.14" cy="142.7" r="10" transform="translate(249.16 603.14) rotate(-76.21)"/><circle class="cls-9" cx="546.5" cy="234.32" r="10" transform="translate(188.63 709.19) rotate(-76.21)"/><circle class="cls-9" cx="535.24" cy="327.44" r="10" transform="translate(89.62 769.17) rotate(-76.21)"/><circle class="cls-9" cx="480.35" cy="409.23" r="10" transform="translate(-31.61 778.15) rotate(-76.21)"/><circle class="cls-9" cx="391.37" cy="458.23" r="10" transform="translate(-146.96 729.05) rotate(-76.21)"/><circle class="cls-9" cx="293.98" cy="456.91" r="10" transform="translate(-219.85 633.47) rotate(-76.21)"/><circle class="cls-9" cx="209" cy="413.01" r="10" transform="translate(-241.94 517.51) rotate(-76.21)"/><circle class="cls-9" cx="152.03" cy="328.63" r="10" transform="matrix(0.24, -0.97, 0.97, 0.24, -203.36, 397.92)"/><circle class="cls-7" cx="141.13" cy="233.73" r="10" transform="translate(-119.51 315.06) rotate(-76.21)"/><circle class="cls-7" cx="177.84" cy="138.92" r="10" transform="translate(0.52 278.51) rotate(-76.21)"/><circle class="cls-8" cx="348.38" cy="53.77" r="10" transform="translate(213.1 379.27) rotate(-76.21)"/><circle class="cls-8" cx="442.84" cy="76.96" r="10" transform="translate(262.51 488.67) rotate(-76.21)"/><text class="cls-10" transform="translate(227.61 473.45)">Social<tspan x="-37.17" y="21.6">media ads</tspan></text><text class="cls-10" transform="translate(405.64 472.96)">Automation<tspan x="0" y="21.6">mar</tspan><tspan class="cls-11" x="33.71" y="21.6">k</tspan><tspan class="cls-12" x="43.13" y="21.6">e</tspan><tspan x="52.87" y="21.6">ting</tspan></text><text class="cls-10" transform="translate(496.21 416.04)">Inbound<tspan x="0" y="21.6">mar</tspan><tspan class="cls-11" x="33.71" y="21.6">k</tspan><tspan class="cls-12" x="43.13" y="21.6">e</tspan><tspan x="52.87" y="21.6">ting</tspan></text><text class="cls-13" transform="translate(274.62 15.41)">Ideas de negocio/<tspan x="15.32" y="21.6">Bussines plan</tspan></text><text class="cls-13" transform="translate(458.9 71.34)">S<tspan class="cls-14" x="11.39" y="0">E</tspan><tspan class="cls-15" x="21.98" y="0">O</tspan></text><text class="cls-10" transform="translate(25.84 337.18)">Remar<tspan class="cls-16" x="56.09" y="0">k</tspan><tspan class="cls-17" x="65.5" y="0">e</tspan><tspan x="75.24" y="0">ting</tspan></text><text class="cls-10" transform="translate(99.33 422.96)"><tspan class="cls-18">P</tspan><tspan x="11.72" y="0">ublicidad</tspan><tspan x="37.93" y="21.6">online</tspan></text><text class="cls-13" transform="translate(525.06 139.17)">S<tspan class="cls-19" x="11.39" y="0">E</tspan><tspan class="cls-20" x="21.8" y="0">A</tspan><tspan class="cls-21" x="35.68" y="0">/</tspan><tspan x="40.7" y="0">Ad</tspan><tspan class="cls-22" x="65" y="0">w</tspan><tspan x="80.64" y="0">o</tspan><tspan class="cls-23" x="91.1" y="0">r</tspan><tspan x="97.69" y="0">ds</tspan></text><text class="cls-10" transform="translate(564.79 238.58)">Medios e<tspan x="0" y="21.6">influence</tspan><tspan class="cls-24" x="75.78" y="21.6">r</tspan><tspan x="82.46" y="21.6">s</tspan></text><text class="cls-10" transform="translate(553.01 332.66)">Mail mar<tspan class="cls-16" x="73.69" y="0">k</tspan><tspan class="cls-12" x="83.1" y="0">e</tspan><tspan x="92.84" y="0">ting</tspan></text><text class="cls-25" transform="translate(134.35 71.98)">Diseño <tspan class="cls-26" x="64.73" y="0">w</tspan><tspan class="cls-27" x="80.58" y="0">eb</tspan></text><text class="cls-25" transform="translate(29.19 138.77)">Mar<tspan class="cls-12" x="34.04" y="0">k</tspan><tspan class="cls-28" x="44.26" y="0">e</tspan><tspan x="53.98" y="0">ting </tspan><tspan class="cls-23" x="93.54" y="0">w</tspan><tspan class="cls-27" x="109.4" y="0">eb</tspan></text><text class="cls-25" transform="translate(0 215.87)"><tspan class="cls-28">Pr</tspan><tspan x="19.17" y="0">og</tspan><tspan class="cls-23" x="41.45" y="0">r</tspan><tspan x="48.65" y="0">amación</tspan><tspan class="cls-23" x="86.61" y="21.6">w</tspan><tspan x="102.47" y="21.6">eb</tspan></text></g></g></svg>