<svg xmlns="http://www.w3.org/2000/svg" viewBox="0 0 673.64 499.96"><defs><style>.cls-1,.cls-13{fill:#00bde0;}.cls-1{opacity:0.25;}.cls-2,.cls-3,.cls-4,.cls-5,.cls-6{fill:none;}.cls-2,.cls-5,.cls-7{stroke:#00bde0;}.cls-2,.cls-3,.cls-4,.cls-5,.cls-6,.cls-7{stroke-miterlimit:10;}.cls-3,.cls-4{stroke:#036785;}.cls-4{stroke-width:2px;}.cls-5{stroke-width:6px;}.cls-6{stroke:#ecbe31;stroke-width:3px;}.cls-10,.cls-7,.cls-9{fill:#036785;}.cls-8{fill:#ecbe31;}.cls-10,.cls-13,.cls-14{font-size:18px;font-weight:700;}.cls-10,.cls-13{font-family:Muli-SemiBold, Muli;}.cls-11{letter-spacing:-0.01em;}.cls-12{letter-spacing:0em;}.cls-14{fill:#fff;font-family:Muli-ExtraBold, Muli;}.cls-15{letter-spacing:-0.01em;}.cls-16{letter-spacing:0em;}.cls-17{letter-spacing:-0.01em;}.cls-18{letter-spacing:-0.01em;}.cls-19{letter-spacing:0.03em;}.cls-20{letter-spacing:-0.02em;}.cls-21{letter-spacing:-0.01em;}.cls-22{letter-spacing:0em;}.cls-23{letter-spacing:-0.01em;}.cls-24{letter-spacing:0em;}.cls-25{letter-spacing:-0.01em;}</style></defs><title>Recurso 12</title><g id="Capa_2" data-name="Capa 2"><g id="Capa_1-2" data-name="Capa 1"><polygon class="cls-1" points="436.26 78.59 343.26 54.59 505.26 142.59 436.26 78.59"/><polygon class="cls-2" points="436.26 78.59 343.76 55.09 505.26 142.59 436.26 78.59"/><polygon class="cls-1" points="436.26 78.59 247.26 74.59 172.26 138.59 136.26 234.59 505.26 142.59 436.26 78.59"/><polygon class="cls-2" points="436.26 78.59 247.26 74.59 172.26 138.59 136.26 234.59 505.26 142.59 436.26 78.59"/><polygon class="cls-1" points="436.26 78.59 505.26 142.59 540.26 234.59 436.26 78.59"/><polygon class="cls-2" points="436.26 78.59 505.26 142.59 540.26 234.59 436.26 78.59"/><polyline class="cls-3" points="437.76 77.09 343.76 54.09 503.76 143.09"/><line class="cls-3" x1="136.76" y1="234.09" x2="437.76" y2="77.09"/><line class="cls-3" x1="172.76" y1="139.09" x2="437.76" y2="77.09"/><line class="cls-3" x1="246.76" y1="74.09" x2="437.76" y2="77.09"/><line class="cls-3" x1="503.76" y1="143.09" x2="246.76" y2="74.09"/><line class="cls-3" x1="172.76" y1="139.09" x2="503.76" y2="143.09"/><line class="cls-3" x1="136.76" y1="234.09" x2="503.76" y2="143.09"/><line class="cls-3" x1="136.76" y1="234.09" x2="343.76" y2="54.09"/><line class="cls-3" x1="172.76" y1="139.09" x2="343.76" y2="54.09"/><line class="cls-3" x1="246.76" y1="74.09" x2="343.76" y2="54.09"/><line class="cls-3" x1="437.76" y1="77.09" x2="503.76" y2="143.09"/><line class="cls-3" x1="503.76" y1="143.09" x2="541.76" y2="234.09"/><line class="cls-3" x1="437.76" y1="77.09" x2="541.76" y2="234.09"/><line class="cls-3" x1="541.76" y1="234.09" x2="529.76" y2="329.09"/><line class="cls-3" x1="475.76" y1="409.09" x2="541.76" y2="234.09"/><line class="cls-3" x1="385.76" y1="457.09" x2="541.76" y2="234.09"/><line class="cls-3" x1="529.76" y1="329.09" x2="385.76" y2="457.09"/><line class="cls-3" x1="385.76" y1="457.09" x2="289.76" y2="457.09"/><line class="cls-3" x1="203.76" y1="413.09" x2="385.76" y2="457.09"/><line class="cls-3" x1="145.76" y1="329.09" x2="385.76" y2="457.09"/><circle class="cls-4" cx="338.07" cy="258.56" r="204.03" transform="translate(6.36 525.23) rotate(-76.21)"/><path class="cls-5" d="M250.37,74.5A203.61,203.61,0,0,0,141.21,210.08a205.94,205.94,0,0,0-4.59,26.34"/><path class="cls-6" d="M434.94,80.25a205.94,205.94,0,0,1,22.66,14.2A203.75,203.75,0,0,1,505,142.24"/><circle class="cls-7" cx="246.88" cy="74.02" r="10" transform="translate(116.13 296.13) rotate(-76.21)"/><circle class="cls-8" cx="504.23" cy="142.7" r="10" transform="translate(245.41 598.36) rotate(-76.21)"/><circle class="cls-7" cx="541.58" cy="234.32" r="10" transform="translate(184.89 704.41) rotate(-76.21)"/><circle class="cls-9" cx="530.33" cy="327.44" r="10" transform="translate(85.88 764.4) rotate(-76.21)"/><circle class="cls-9" cx="475.43" cy="409.23" r="10" transform="translate(-35.36 773.38) rotate(-76.21)"/><circle class="cls-9" cx="386.45" cy="458.23" r="10" transform="translate(-150.7 724.28) rotate(-76.21)"/><circle class="cls-9" cx="289.06" cy="456.91" r="10" transform="translate(-223.6 628.7) rotate(-76.21)"/><circle class="cls-9" cx="204.08" cy="413.01" r="10" transform="translate(-245.68 512.73) rotate(-76.21)"/><circle class="cls-9" cx="147.12" cy="328.63" r="10" transform="translate(-207.11 393.15) rotate(-76.21)"/><circle class="cls-7" cx="136.22" cy="233.73" r="10" transform="translate(-123.25 310.29) rotate(-76.21)"/><circle class="cls-7" cx="172.93" cy="138.92" r="10" transform="translate(-3.22 273.74) rotate(-76.21)"/><circle class="cls-7" cx="343.46" cy="53.77" r="10" transform="translate(209.35 374.5) rotate(-76.21)"/><circle class="cls-8" cx="437.92" cy="76.96" r="10" transform="translate(258.77 483.9) rotate(-76.21)"/><text class="cls-10" transform="translate(222.7 473.45)">Social<tspan x="-37.17" y="21.6">media ads</tspan></text><text class="cls-10" transform="translate(400.73 472.96)">Automation<tspan x="0" y="21.6">mar</tspan><tspan class="cls-11" x="33.71" y="21.6">k</tspan><tspan class="cls-12" x="43.13" y="21.6">e</tspan><tspan x="52.87" y="21.6">ting</tspan></text><text class="cls-10" transform="translate(491.3 416.04)">Inbound<tspan x="0" y="21.6">mar</tspan><tspan class="cls-11" x="33.71" y="21.6">k</tspan><tspan class="cls-12" x="43.13" y="21.6">e</tspan><tspan x="52.87" y="21.6">ting</tspan></text><text class="cls-13" transform="translate(269.7 15.41)">Ideas de negocio/<tspan x="15.32" y="21.6">Bussines plan</tspan></text><text class="cls-14" transform="translate(453.98 71.34)">SEO</text><text class="cls-10" transform="translate(20.93 337.18)">Remar<tspan class="cls-15" x="56.09" y="0">k</tspan><tspan class="cls-16" x="65.5" y="0">e</tspan><tspan x="75.24" y="0">ting</tspan></text><text class="cls-10" transform="translate(94.42 422.96)"><tspan class="cls-17">P</tspan><tspan x="11.72" y="0">ublicidad</tspan><tspan x="37.93" y="21.6">online</tspan></text><text class="cls-14" transform="translate(520.14 139.17)">S<tspan class="cls-18" x="11.83" y="0">E</tspan><tspan class="cls-19" x="22.43" y="0">A</tspan><tspan class="cls-20" x="36.63" y="0">/</tspan><tspan x="42.26" y="0">Ad</tspan><tspan class="cls-18" x="67.27" y="0">w</tspan><tspan x="83.12" y="0">o</tspan><tspan class="cls-21" x="94" y="0">r</tspan><tspan x="101.2" y="0">ds</tspan></text><text class="cls-13" transform="translate(559.88 238.58)">Medios e<tspan x="0" y="21.6">influence</tspan><tspan class="cls-22" x="75.78" y="21.6">r</tspan><tspan x="82.46" y="21.6">s</tspan></text><text class="cls-10" transform="translate(548.09 332.66)">Mail mar<tspan class="cls-15" x="73.69" y="0">k</tspan><tspan class="cls-12" x="83.1" y="0">e</tspan><tspan x="92.84" y="0">ting</tspan></text><text class="cls-13" transform="translate(132.1 71.98)">Diseño <tspan class="cls-23" x="62.75" y="0">w</tspan><tspan class="cls-24" x="78.39" y="0">eb</tspan></text><text class="cls-13" transform="translate(28.83 138.77)">Mar<tspan class="cls-15" x="33.01" y="0">k</tspan><tspan class="cls-12" x="42.43" y="0">e</tspan><tspan x="52.16" y="0">ting </tspan><tspan class="cls-23" x="89.67" y="0">w</tspan><tspan x="105.32" y="0">eb</tspan></text><text class="cls-13" transform="translate(0 215.87)"><tspan class="cls-21">Pr</tspan><tspan x="18.25" y="0">og</tspan><tspan class="cls-25" x="39.74" y="0">r</tspan><tspan x="46.33" y="0">amación</tspan><tspan class="cls-23" x="82.38" y="21.6">w</tspan><tspan x="98.03" y="21.6">eb</tspan></text></g></g></svg>