<svg xmlns="http://www.w3.org/2000/svg" viewBox="0 0 112.2 112.2"><defs><style>.cls-1{fill:#00bde0;}</style></defs><title>Recurso 2</title><g id="Capa_2" data-name="Capa 2"><g id="Capa_1-2" data-name="Capa 1"><path class="cls-1" d="M56.1,0a56.1,56.1,0,1,0,56.1,56.1A56.1,56.1,0,0,0,56.1,0ZM32.57,26A6.59,6.59,0,1,1,26,32.57,6.59,6.59,0,0,1,32.57,26Zm6.88,60.22H26V44.81H39.45Zm46.76,0H72.75V59.86c-4.29-10.41-14.47,3.76-14.47,3.76V86.21H44.81V44.81H58.27v7.92c1.64-2.21,6.62-7.92,14.47-7.92a12.07,12.07,0,0,1,2.42.24l.55.11.43.14a13.43,13.43,0,0,1,10.07,13Z"/></g></g></svg>