<svg id="Capa_1" data-name="Capa 1" xmlns="http://www.w3.org/2000/svg" viewBox="0 0 900 900"><defs><style>.cls-1,.cls-2,.cls-5,.cls-7{fill:none;}.cls-1{stroke:#036785;stroke-width:2px;}.cls-1,.cls-2,.cls-5,.cls-6,.cls-7{stroke-miterlimit:10;}.cls-2,.cls-5,.cls-6{stroke:#00bde0;}.cls-2,.cls-7{stroke-width:4px;}.cls-3,.cls-6,.cls-9{fill:#036785;}.cls-10,.cls-4{fill:#00bde0;}.cls-4{opacity:0.25;}.cls-7{stroke:#ecbe31;}.cls-8{fill:#ecbe31;}.cls-10,.cls-15,.cls-9{font-size:18px;font-weight:700;}.cls-10,.cls-9{font-family:Muli-SemiBold, Muli;}.cls-11{letter-spacing:-0.01em;}.cls-12{letter-spacing:0em;}.cls-13{letter-spacing:0em;}.cls-14{letter-spacing:0em;}.cls-15{fill:#fff;font-family:Muli-ExtraBold, Muli;}.cls-16{letter-spacing:-0.01em;}.cls-17{letter-spacing:-0.01em;}.cls-18{letter-spacing:0.03em;}.cls-19{letter-spacing:-0.02em;}.cls-20{letter-spacing:-0.01em;}.cls-21{letter-spacing:-0.01em;}.cls-22{letter-spacing:0em;}.cls-23{letter-spacing:-0.01em;}.cls-24{letter-spacing:0em;}</style></defs><title>infografía_180308</title><circle class="cls-1" cx="431.81" cy="444.97" r="204.03" transform="translate(-103.29 758.22) rotate(-76.21)"/><path class="cls-2" d="M622.72,514.1a205.94,205.94,0,0,1-10.67,24.51A203.61,203.61,0,0,1,474,644.62"/><circle class="cls-3" cx="340.62" cy="260.44" r="10" transform="translate(6.48 529.13) rotate(-76.21)"/><polygon class="cls-4" points="623.5 514.5 240.5 514.5 298.5 599.5 480.5 645.5 569.5 596.5 623.5 514.5"/><polygon class="cls-5" points="623.5 514.5 240.5 514.5 298.5 599.5 480.5 645.5 569.5 596.5 623.5 514.5"/><circle class="cls-3" cx="597.96" cy="329.12" r="10" transform="translate(135.76 831.36) rotate(-76.21)"/><circle class="cls-3" cx="635.32" cy="420.73" r="10" transform="translate(75.24 937.41) rotate(-76.21)"/><circle class="cls-6" cx="624.06" cy="513.85" r="10" transform="translate(-23.77 997.39) rotate(-76.21)"/><path class="cls-7" d="M296.24,595.73a205.94,205.94,0,0,1-18.7-19.11,203.75,203.75,0,0,1-34.9-57.57"/><circle class="cls-6" cx="569.17" cy="595.65" r="10" transform="translate(-145.01 1006.38) rotate(-76.21)"/><circle class="cls-6" cx="480.19" cy="644.64" r="10" transform="translate(-260.35 957.28) rotate(-76.21)"/><circle class="cls-3" cx="382.8" cy="643.33" r="10" transform="translate(-333.25 861.69) rotate(-76.21)"/><circle class="cls-8" cx="297.82" cy="599.43" r="10" transform="translate(-355.33 745.73) rotate(-76.21)"/><circle class="cls-8" cx="240.85" cy="515.04" r="10" transform="translate(-316.76 626.14) rotate(-76.21)"/><circle class="cls-3" cx="229.95" cy="420.15" r="10" transform="translate(-232.9 543.29) rotate(-76.21)"/><circle class="cls-3" cx="266.67" cy="325.34" r="10" transform="translate(-112.87 506.74) rotate(-76.21)"/><circle class="cls-3" cx="437.2" cy="240.18" r="10" transform="translate(99.7 607.5) rotate(-76.21)"/><circle class="cls-3" cx="531.66" cy="263.37" r="10" transform="translate(149.12 716.9) rotate(-76.21)"/><text class="cls-9" transform="translate(316.43 659.86)">Social<tspan x="-37.17" y="21.6">media ads</tspan></text><text class="cls-10" transform="translate(494.46 659.37)">Automation<tspan x="0" y="21.6">mar</tspan><tspan class="cls-11" x="33.71" y="21.6">k</tspan><tspan class="cls-12" x="43.13" y="21.6">e</tspan><tspan x="52.87" y="21.6">ting</tspan></text><text class="cls-10" transform="translate(585.03 602.46)">Inbound<tspan x="0" y="21.6">mar</tspan><tspan class="cls-11" x="33.71" y="21.6">k</tspan><tspan class="cls-12" x="43.13" y="21.6">e</tspan><tspan x="52.87" y="21.6">ting</tspan></text><text class="cls-9" transform="translate(363.44 201.82)">Ideas de negocio/<tspan x="15.32" y="21.6">Bussines plan</tspan></text><text class="cls-9" transform="translate(547.72 257.75)">S<tspan class="cls-13" x="11.39" y="0">E</tspan><tspan class="cls-14" x="21.98" y="0">O</tspan></text><text class="cls-15" transform="translate(100.42 523.59)">Remar<tspan class="cls-12" x="57.76" y="0">k</tspan><tspan class="cls-16" x="67.99" y="0">e</tspan><tspan x="77.71" y="0">ting</tspan></text><text class="cls-15" transform="translate(184.43 609.37)"><tspan class="cls-16">P</tspan><tspan x="11.97" y="0">ublicidad</tspan><tspan x="39.51" y="21.6">online</tspan></text><text class="cls-9" transform="translate(613.88 325.58)">S<tspan class="cls-17" x="11.39" y="0">E</tspan><tspan class="cls-18" x="21.8" y="0">A</tspan><tspan class="cls-19" x="35.68" y="0">/</tspan><tspan x="40.7" y="0">Ad</tspan><tspan class="cls-20" x="65" y="0">w</tspan><tspan x="80.64" y="0">o</tspan><tspan class="cls-21" x="91.1" y="0">r</tspan><tspan x="97.69" y="0">ds</tspan></text><text class="cls-9" transform="translate(653.61 424.99)">Medios e<tspan x="0" y="21.6">influence</tspan><tspan class="cls-22" x="75.78" y="21.6">r</tspan><tspan x="82.46" y="21.6">s</tspan></text><text class="cls-10" transform="translate(641.83 519.07)">Mail mar<tspan class="cls-23" x="73.69" y="0">k</tspan><tspan class="cls-12" x="83.1" y="0">e</tspan><tspan x="92.84" y="0">ting</tspan></text><text class="cls-9" transform="translate(225.83 258.39)">Diseño <tspan class="cls-20" x="62.75" y="0">w</tspan><tspan class="cls-24" x="78.39" y="0">eb</tspan></text><text class="cls-9" transform="translate(122.56 325.18)">Mar<tspan class="cls-23" x="33.01" y="0">k</tspan><tspan class="cls-12" x="42.43" y="0">e</tspan><tspan x="52.16" y="0">ting </tspan><tspan class="cls-20" x="89.67" y="0">w</tspan><tspan x="105.32" y="0">eb</tspan></text><text class="cls-9" transform="translate(93.74 402.28)"><tspan class="cls-21">Pr</tspan><tspan x="18.25" y="0">og</tspan><tspan class="cls-16" x="39.74" y="0">r</tspan><tspan x="46.33" y="0">amación</tspan><tspan class="cls-20" x="82.38" y="21.6">w</tspan><tspan x="98.03" y="21.6">eb</tspan></text></svg>